<svg xmlns:xlink="http://www.w3.org/1999/xlink" id="Layer_1" data-name="Layer 1" xmlns="http://www.w3.org/2000/svg"
     viewBox="0 0 612 97.05">
    <defs>
        <style>
            .cls-1{fill:#231f20;fill-opacity:0}.cls-2{fill:#115393;}.cls-3{fill:url(#linear-gradient);}.cls-4{fill:url(#linear-gradient-2);}.cls-5{fill:url(#linear-gradient-3);}.cls-6{fill:#fff;}.cls-7{fill:#eb6f23;fill-rule:evenodd;}
        </style>
        <linearGradient id="linear-gradient" x1="193.11" y1="50.3" x2="193.11" y2="26.44"
                        gradientUnits="userSpaceOnUse">
            <stop offset="0" stop-color="#fff" stop-opacity="0.1"/>
            <stop offset="0.08" stop-color="#fff" stop-opacity="0.08"/>
            <stop offset="0.32" stop-color="#fff" stop-opacity="0.02"/>
            <stop offset="0.52" stop-color="#fff" stop-opacity="0"/>
            <stop offset="0.74" stop-color="#fff" stop-opacity="0.01"/>
            <stop offset="0.85" stop-color="#fff" stop-opacity="0.04"/>
            <stop offset="0.93" stop-color="#fff" stop-opacity="0.09"/>
            <stop offset="1" stop-color="#fff" stop-opacity="0.16"/>
        </linearGradient>
        <linearGradient id="linear-gradient-2" x1="255.78" y1="50.3" x2="255.78" y2="26.44"
                        xlink:href="#linear-gradient"/>
        <linearGradient id="linear-gradient-3" x1="301.88" y1="50.3" x2="301.88" y2="26.44"
                        xlink:href="#linear-gradient"/>
    </defs>
    <title>4 - linear</title>
    <rect class="cls-1" width="612" height="97.05"/>
    <path class="cls-2"
          d="M246,33.08a11.82,11.82,0,0,1-.8,4.07l-5.06,14.2q-1.87,5.2-6.47,6.14H198.22l-2.81,7.9A20.42,20.42,0,0,1,176.18,79h-.09l12-33.87h36.1a7.52,7.52,0,0,0,3.34-.54,2.93,2.93,0,0,0,1.2-1.73l.66-1.87a1.93,1.93,0,0,0,.07-.53c0-1.42-1.11-2.13-3.34-2.13H158.75l-2.4,6.81h26.74q.47-.68-4.34,12.4H152l-2.76,7.83A20.55,20.55,0,0,1,130.79,79c-.3,0-.61,0-.92,0v0l18.78-53.2,0-.05h88.15a10.86,10.86,0,0,1,6.6,1.9,6.31,6.31,0,0,1,2.6,5.43"/>
    <path class="cls-2"
          d="M317.4,25.81H304.21a75.31,75.31,0,0,1-17.76,24.28c-8.63,7.68-20.71,14.37-32.57,14.9h0l7-19.89h0l2.4-6.81h0l4.38-12.4H251.27l-.32-.14a.87.87,0,0,1-.08.14h-4.22a9.19,9.19,0,0,1,2,2.89,10.76,10.76,0,0,1,.85,4.31,14.27,14.27,0,0,1-.31,2.85l-2.72,7.88h0l-1.54,4.49L243,54l-3.78,11-1.37,4-3.2,9.3-.21.61h2.49c3.63,0,10,.06,10.87,0a86.48,86.48,0,0,0,13.63-1.17,57.78,57.78,0,0,0,23.87-10.69,80.92,80.92,0,0,0,10.1-8.85,118.58,118.58,0,0,0,22-32.4Z"/>
    <path class="cls-3"
          d="M181.44,46.34H154.58L157.86,37h68.23c4.14,0,4.59,2.36,4.59,3.38a3.83,3.83,0,0,1-.1.82l-.71,2a4,4,0,0,1-1.75,2.39,8.51,8.51,0,0,1-4,.71H188.94L187.64,50h51.67l4.75-13.29a11,11,0,0,0,.72-3.65,5.08,5.08,0,0,0-2.09-4.42A9.71,9.71,0,0,0,236.83,27H149.56l-8.12,23h38.7C180.76,48.29,181.17,47.11,181.44,46.34Z"/>
    <path class="cls-4"
          d="M265.91,27.13H249.2a12.12,12.12,0,0,1,.57,1.14,11.91,11.91,0,0,1,1,4.81,14.94,14.94,0,0,1-.34,3.11L245.64,50h12.2Z"/>
    <path class="cls-5" d="M315.42,27.06H305a75.92,75.92,0,0,1-16.67,23h12.6A119.35,119.35,0,0,0,315.42,27.06Z"/>
    <path class="cls-6"
          d="M325.34,42.83h19.58l.25.34-1.41,5.09a1,1,0,0,1-1,.8H331.54a.81.81,0,0,0-.86.67l-1.63,5.89.25.34h9.51c.68,0,.94.27.8.8l-1.34,4.86a.83.83,0,0,1-.87.68h-9.51A.83.83,0,0,0,327,63l-1.56,5.66c-.35,1.28.45,1.93,2.41,1.93h9.51c.53,0,.72.26.58.79l-1.41,5.09-.43.34H321.51a5.45,5.45,0,0,1-3.93-3.39,9,9,0,0,1,.09-4.42l6.84-24.79C324.76,43.28,325,42.83,325.34,42.83Z"/>
    <path class="cls-6"
          d="M351.77,42.83H360c.48,0,.88.87,1.2,2.6l2,6.23q1.2-1.17,7.61-8.72l.49-.11h8.26l.17.23q-14.07,16.48-14.14,16.75,5,16.48,4.89,16.76l-.29.22H362.1c-.49,0-.82-.71-1-2.15A63.62,63.62,0,0,1,359,67.85h-.23q-.39.2-7.65,8.83l-.59.11H342.4c-.15,0-.2-.11-.14-.34q14-16.4,14.14-16.75-.22-1.41-4.92-16.64Z"/>
    <path class="cls-6"
          d="M393.28,42.83h12.8c.68,0,.9.41.67,1.24l-1.31,4.76a1.52,1.52,0,0,1-1.59,1.25H393.21a1.08,1.08,0,0,0-1.16.9l-4.87,17.57c-.11.73.16,1.13.8,1.22h10.66c.68,0,.95.27.8.8L398,75.89q-.24.9-.93.9H382.55A6,6,0,0,1,379,74.41a6.91,6.91,0,0,1-.56-5.77l4.92-17.89.18-.56a11.21,11.21,0,0,1,3.52-5,10.35,10.35,0,0,1,5.83-2.27Z"/>
    <path class="cls-6"
          d="M413.26,42.83H422l.25.34-3.41,12.34L419,56h7.7l.43-.34,3.44-12.45.43-.34h8.72l.24.34-8.95,32.6a1.19,1.19,0,0,1-1.19,1h-7.52c-.6,0-.81-.34-.62-1l3.47-12.56c0-.3-.18-.46-.55-.46h-7.48l-.43.34-3.49,12.57c-.21.76-.58,1.13-1.11,1.13h-7.79c-.6,0-.81-.34-.62-1l8.81-31.92C412.69,43.27,412.93,42.93,413.26,42.83Z"/>
    <path class="cls-6"
          d="M453.1,42.83H465c.71,0,.82,1.24.33,3.74L463,76.34a.84.84,0,0,1-.81.45h-7c-.6,0-.73-.9-.38-2.72.4-3.25.51-5,.34-5.31h-6.45c-.29,0-1.48,2.52-3.57,7.58l-.58.45h-7.7l-.24-.34q7.86-16.59,12.12-26.26l3.37-6.91A1.83,1.83,0,0,1,453.1,42.83Zm-2.46,19.58.08.12H455l.29-.23,1.17-12-.09-.11h-.11q-.52,0-2.13,4A88,88,0,0,0,450.64,62.41Z"/>
    <path class="cls-6"
          d="M478.29,42.83h10.87q.49.49.81,8.15l.67,11.1H491l5-18.37c.3-.59.54-.88.73-.88h7.69l.25.34L495.5,76.45l-.43.34H484.54c-.48,0-.68-.53-.58-1.58l-1.09-17.78h-.34l-.29,1-4.81,17.44c-.16.6-.48.9-.93.9h-7.58l-.25-.34,9.19-33.28Z"/>
    <path class="cls-6"
          d="M516,42.83h15.29l.24.34-1.47,5.32a1.25,1.25,0,0,1-1.38.91h-10a2.38,2.38,0,0,0-2.22,1.47l-4.93,17.89A2.13,2.13,0,0,0,512.4,70h4a.83.83,0,0,0,.87-.68l3.06-11.09q.06-.21.84-.57l.08.11h6.57c.6,0,.82.31.65.91l-4.71,17.09c-.16.58-.41.92-.74,1H508q-3.86-1-4.69-3.51a7,7,0,0,1-.25-3.62l5.53-20q.61-2.22,3.9-5.09A14.38,14.38,0,0,1,516,42.83Z"/>
    <path class="cls-6"
          d="M539,42.83h19.58l.25.34-1.41,5.09a1,1,0,0,1-1,.8H545.17a.81.81,0,0,0-.86.67l-1.63,5.89.25.34h9.51c.68,0,.94.27.8.8l-1.35,4.86a.81.81,0,0,1-.86.68h-9.51a.83.83,0,0,0-.87.68l-1.56,5.66c-.36,1.28.45,1.93,2.41,1.93H551c.53,0,.72.26.58.79l-1.41,5.09-.43.34H535.14a5.45,5.45,0,0,1-3.93-3.39,9.16,9.16,0,0,1,.08-4.42l6.85-24.79C538.39,43.28,538.66,42.83,539,42.83Z"/>
    <path class="cls-7"
          d="M97,28.2a16.55,16.55,0,0,0-2.81,2.87c-2,3.38-3.79,6.89-5.68,10.35a13.32,13.32,0,0,1-15,6.47C69.94,47,66.32,46,62.69,45c-2.21-.58-3.85.18-4.38,2s.52,3.44,2.78,4.11c3.36,1,6.72,2,10.1,2.94a8.56,8.56,0,0,1,5.28,4.41,4.47,4.47,0,0,1-.08,5c-.92,1.34-1.64,2.82-2.49,4.22-.69,1.15-.28,1.94.76,2.56a4.06,4.06,0,0,0,5.92-1.34l1.55-2.46c3.51-5.61,9-7.71,15.44-5.92,2.51.69,5,1.52,7.53,2a8.28,8.28,0,0,0,4.23-.2,3.94,3.94,0,0,0,2.16-2.51c.27-1.34-.85-2.29-2.18-2.72l-8.81-2.83c-4.42-1.42-6-5.72-3.54-9.7,1.82-2.93,3.75-5.8,5.57-8.73a4.67,4.67,0,0,0-.18-5.6A5.94,5.94,0,0,0,97,28.2Z"/>
    <path class="cls-7"
          d="M81.48,40.18c-2.42-12.73,11-23.22,22.1-21.3,7.73,1.33,12.18,7.84,10.19,15.43C112,41,107.54,45.18,101.29,47.71c-.32.14-.67.23-1.38.46,9-1.16,17.44-8.5,19.75-16.83,2.9-10.46-3.83-19.37-14.85-19.65A25.34,25.34,0,0,0,81.48,27,16.49,16.49,0,0,0,81.48,40.18Z"/>
    <path class="cls-7"
          d="M77.45,43.82a35.83,35.83,0,0,0-3.16-5.25c-5.57-6.45-16.9-7.44-23.66-2.22C45,40.7,44.39,47.77,49.25,53c4,4.35,11.13,6.37,16.26,5-2.18-.62-5.15-1.07-7.77-2.27a9.68,9.68,0,0,1-6-8.81c-.12-4.27,3.09-8.13,7.64-9.48C66.55,35.34,73,37.73,77,44.08Z"/>
    <path class="cls-7"
          d="M92.83,63.42a10.79,10.79,0,0,0,5.81,5.71c7.58,3.22,14.91,2.61,21.74-2,4.14-2.8,5.58-6.77,4.29-10.79a9.45,9.45,0,0,0-4.38-5.13c-4.46-2.71-9.32-3.16-14.36-2.37-1.42.22-2.81.68-3.82.93a42.23,42.23,0,0,1,6.89.11,17.35,17.35,0,0,1,6.23,2.26c4.6,2.86,5,8.08,1.09,11.83-3.58,3.43-8,4.58-12.85,4.37A14.06,14.06,0,0,1,92.83,63.42Z"/>
    <path class="cls-7"
          d="M73.14,63.14c-3.13-.94-6,.11-7.41,2.67a5.92,5.92,0,0,0,1.37,7.56c4.51,3.94,9.72,4.47,15.29,2.78a14.36,14.36,0,0,0,2.35-.93c3.9-2,4.31-5.6,1-8.54.43,5-2.65,8-8.46,7.81a17.51,17.51,0,0,1-5.73-1.4,4.62,4.62,0,0,1-3.27-4.56c0-2.29,1.45-3.75,3.36-4.8A11.63,11.63,0,0,1,73.14,63.14Z"/>
</svg>
